<?xml version="1.0" encoding="utf-8"?>
<!-- Generator: Adobe Illustrator 27.2.0, SVG Export Plug-In . SVG Version: 6.00 Build 0)  -->
<svg version="1.1" id="图层_1" xmlns="http://www.w3.org/2000/svg" xmlns:xlink="http://www.w3.org/1999/xlink" x="0px" y="0px"
	 viewBox="0 0 1920 602.67" style="enable-background:new 0 0 1920 602.67;" xml:space="preserve">
<style type="text/css">
	.st0{fill:#EFBC4D;}
	.st1{fill:#8969F9;}
	.st2{fill:#F9B938;}
</style>
<g>
	<path class="st0" d="M154.67,245.64H47l233.83,268.52c1.07,1.37,3.1,1.68,4.49,0.63c1.28-0.95,1.71-2.74,0.86-4.11L154.67,245.64z
		 M555.18,245.64L423.67,510.69c-0.75,1.58,0,3.48,1.6,4.21c1.28,0.53,2.78,0.21,3.74-0.84l233.83-268.42H555.18z M205.45,245.64
		l146.59,335.08c0.75,1.58,2.57,2.32,4.17,1.68c0.75-0.32,1.28-0.95,1.71-1.68L504.4,245.64H205.45z"/>
	<path class="st1" d="M143.76,43.46L47,211.95h108.09l73.99-168.49H143.76z M566.09,43.46h-85.32l73.99,168.49h108.09L566.09,43.46z
		 M280.62,43.46l-73.99,168.49h296.59L429.23,43.46H280.62z"/>
</g>
<g>
	<path d="M852.23,372.19v102.45c0,9.7-2.11,15.58-6.33,17.64c-4.22,2.08-10.08,4.04-17.57,5.89c-1.88-6.93-4.22-12.47-7.03-16.62
		c6.56,0,11.24-0.23,14.06-0.69c2.81-0.45,4.22-3.91,4.22-10.39v-34.61h-27.41c-0.94,11.55-2.58,22.16-4.92,31.85
		c-2.35,9.7-5.62,19.15-9.85,28.39c-3.75-3.23-8.2-6-13.35-8.31c5.62-10.15,9.49-19.74,11.59-28.73c2.11-8.99,3.52-18.11,4.22-27.34
		c0.71-9.23,1.06-23.76,1.06-43.61c0-19.84-0.24-33.69-0.7-41.54h52.71C852.46,350.27,852.23,358.81,852.23,372.19z M839.58,424.11
		v-27.69h-26.01l-0.7,27.69H839.58z M839.58,384.65v-26.29h-26.01v26.29H839.58z M881.75,498.87H868.4
		c0.46-11.07,0.7-21.46,0.7-31.16v-96.23c0-7.84-0.24-16.37-0.7-25.61h65.37c-0.48,6.46-0.95,13.5-1.41,21.12
		c-0.48,7.62-1.18,13.39-2.11,17.3c-0.94,3.93-3.76,6.82-8.43,8.65c-4.69,1.85-10.79,3.25-18.28,4.16
		c-1.41-5.54-3.51-10.15-6.32-13.84c11.71,0,18.27-1.27,19.68-3.82c1.41-2.53,2.11-9.79,2.11-21.8h-37.26v46.39h58.34
		c-1.88,12-4.22,22.73-7.03,32.19c-2.81,9.46-6.57,18.81-11.24,28.03c7.96,9.23,17.09,16.16,27.41,20.77
		c-3.28,2.77-6.57,6.68-9.84,11.76c-8.91-6-17.34-13.39-25.31-22.15c-5.62,7.86-13.36,16.15-23.19,24.92
		c-2.35-4.15-4.92-7.86-7.73-11.07c6.56-4.62,13.82-12.47,21.79-23.54c-6.09-7.84-12.19-24.23-18.27-49.15h-4.92V498.87z
		 M912.68,453.87c5.62-10.61,9.6-23.3,11.95-38.07h-25.31C903.07,433.34,907.52,446.03,912.68,453.87z"/>
	<path d="M1016,478.1v-11.76c-11.72,6.91-23.44,12.93-35.14,18c-2.35-3.7-5.86-7.38-10.54-11.09c7.03-1.38,14.99-4.03,23.9-7.96
		c8.9-3.91,16.62-8.07,23.19-12.45c6.56-4.38,11.71-8.65,15.46-12.81h-34.44c-7.5,0-15.23,0.24-23.19,0.69v-12.45
		c7.96,0.93,15.7,1.38,23.19,1.38h47.79c-2.81-6.45-6.33-11.99-10.54-16.61c3.75-1.84,7.26-3.92,10.54-6.23
		c4.68,6,8.67,11.76,11.95,17.3c-4.22,1.85-7.27,3.7-9.14,5.54h52.01c7.03,0,14.99-0.23,23.9-0.69v11.76
		c-8.43-0.45-16.41-0.69-23.9-0.69h-46.39c8.43,12.47,15.92,21.01,22.5,25.62c4.67-3.23,9.01-6.58,13-10.04
		c3.97-3.46,7.38-7.03,10.2-10.73c3.27,4.61,7.03,8.54,11.24,11.76c-4.69,1.39-13.83,6.93-27.41,16.61
		c3.75,2.32,8.78,4.5,15.11,6.58c6.33,2.08,15.11,3.56,26.36,4.5c-4.22,4.6-6.8,8.99-7.73,13.14c-10.79-2.3-20.03-5.07-27.77-8.31
		c-7.73-3.23-15-8.07-21.79-14.53c-6.8-6.46-14.65-16.61-23.54-30.45c-4.22,4.15-9.84,8.99-16.87,14.53v22.15
		c7.48-2.77,14.75-6.23,21.79-10.39c0.46,3.71,1.63,7.39,3.51,11.07c-8.43,4.16-14.88,7.27-19.33,9.35
		c-4.46,2.08-9.49,4.73-15.11,7.96c-2.81-4.16-5.39-7.86-7.73-11.07C1013.89,485.48,1015.53,482.26,1016,478.1z M998.43,391.23
		c8.43-3.46,15.46-6.58,21.08-9.35v-20.07c0-6.93-0.24-13.38-0.7-19.38h13.36c-0.48,5.07-0.71,11.54-0.71,19.38v32.53
		c0,6,0.23,12.7,0.71,20.07h-13.36c0.46-7.84,0.7-14.76,0.7-20.76c-6.09,2.3-12.77,5.31-20.03,8.99c-7.27,3.7-13.71,6.93-19.33,9.7
		c-1.88-4.16-4.47-7.84-7.73-11.07C981.32,398.04,989.99,394.69,998.43,391.23z M978.74,361.81c3.75-3.22,6.33-6.23,7.73-9.01
		c7.03,4.62,14.29,10.39,21.79,17.31c-3.28,3.23-6.32,6.46-9.14,9.7C993.03,372.88,986.23,366.89,978.74,361.81z M1072.23,361.12
		c0-7.84-0.24-14.77-0.7-20.77h14.06c-0.47,2.77-0.71,9.68-0.71,20.77h18.28c4.22,0,9.84-0.24,16.87-0.7v11.78
		c-7.03-0.46-12.65-0.7-16.87-0.7h-18.28v21.46h13.36c3.28,0,8.43-0.23,15.47-0.69v11.78c-7.03-0.46-12.19-0.7-15.47-0.7h-32.33
		c-5.62,0-11.49,0.24-17.57,0.7v-11.78c4.67,0.46,10.07,0.69,16.16,0.69h7.73v-21.46h-9.84c-6.09,0-13.13,0.24-21.09,0.7v-11.78
		c7.96,0.46,15,0.7,21.09,0.7H1072.23z"/>
	<path d="M1301.35,372.88v110.07c0,7.38-2.69,11.64-8.08,12.81c-5.39,1.14-12.54,2.42-21.43,3.8c-0.95-4.61-3.3-9.68-7.03-15.22
		c9.36,0.45,15.47,0.23,18.28-0.7c2.81-0.91,4.21-3.46,4.21-7.62V359.04h-118.78v140.52h-15.47c0.93-9.23,1.41-17.06,1.41-23.54
		V372.88c0-7.38-0.47-15.92-1.41-25.62h149.71C1301.82,353.28,1301.35,361.81,1301.35,372.88z M1194.88,393.31
		c3.04,5.3,6.21,10.49,9.49,15.57c5.62-18.45,8.89-31.14,9.83-38.07c5.15,1.85,10.77,3.7,16.88,5.54c-2.81,3.23-5.39,8.2-7.73,14.89
		c-2.35,6.69-6.09,16.96-11.24,30.8c4.21,6.48,9.36,14.78,15.45,24.93c-4.68,2.77-8.68,5.78-11.94,8.99
		c-4.69-9.7-8.2-16.37-10.54-20.08c-8.44,17.09-15.94,29.78-22.5,38.08c-3.75-3.23-7.73-5.54-11.95-6.93
		c7.49-7.84,16.63-22.6,27.41-44.3c-11.24-19.84-19.68-33-25.3-39.46c4.22-1.84,8.66-3.7,13.36-5.54
		C1188.91,382.82,1191.82,388,1194.88,393.31z M1254.96,410.95c5.62-18.92,9.15-32.3,10.54-40.15c5.15,2.77,10.3,5.31,15.47,7.62
		c-2.35,3.23-4.92,8.99-7.73,17.3c-2.81,8.32-6.32,18-10.54,29.08c5.15,9.7,11.47,21.01,18.98,33.93
		c-5.16,1.38-9.83,3.23-14.06,5.54l-12.66-24.92c-3.28,6.46-6.56,12.11-9.83,16.96c-3.28,4.85-7.73,10.97-13.36,18.35
		c-3.28-3.7-7.98-6.23-14.06-7.62c4.21-4.15,8.78-9.22,13.71-15.23c4.92-5.99,10.42-14.76,16.52-26.29
		c-6.58-13.38-13.36-24.69-20.39-33.93c3.75-1.39,8.19-3.46,13.36-6.23C1247.94,398.73,1252.62,407.27,1254.96,410.95z"/>
	<path d="M1351.97,471.53c-7.51,2.54-15.24,5.66-23.2,9.34c-1.4-5.99-3.05-11.76-4.92-17.3c4.22-0.93,8.55-1.96,13.01-3.11
		c4.45-1.15,8.08-2.19,10.89-3.13v-57.45h-11.24c-3.75,0-7.28,0.24-10.54,0.69v-13.84c2.81,0.46,6.08,0.69,9.85,0.69h11.94v-22.15
		c0-7.84-0.24-15.23-0.7-22.15h15.47c-0.48,6.91-0.71,14.31-0.71,22.15v22.15h3.52c5.15,0,11.24-0.23,18.27-0.69v13.15
		c-7.02-0.45-13.11-0.69-18.27-0.69h-3.52v54.68c5.15-1.84,12.89-4.38,23.2-7.62c-0.94,4.16-1.41,9.01-1.41,14.55
		C1369.99,465.41,1359.46,469,1351.97,471.53z M1410.3,401.96v76.14h23.9V365.95c0-8.31-0.24-16.84-0.7-25.61h15.45
		c-0.47,8.77-0.7,17.3-0.7,25.61v27c13.58,0,25.3-0.23,35.14-0.69v13.15c-9.37-0.45-21.09-0.69-35.14-0.69v73.37h14.06
		c8.9,0,18.28-0.23,28.11-0.69v13.15c-9.83-0.46-18.96-0.69-27.41-0.69h-61.84c-11.24,0-21.33,0.23-30.22,0.69v-13.15
		c8.89,0.46,17.57,0.69,26,0.69v-76.83c0-10.15-0.24-18.93-0.7-26.31h15.47C1411.23,381.88,1410.76,390.88,1410.3,401.96z"/>
	<path d="M1615.53,435.18c0-4.15-0.24-9.45-0.7-15.92h15.47c-0.47,7.39-0.7,12.7-0.7,15.92h14.06c7.02,0,15.45-0.23,25.3-0.69v12.47
		c-9.85-0.46-18.28-0.7-25.3-0.7h-14.06v30.47c0,8.31-2.35,13.84-7.03,16.61c-4.69,2.77-13.13,5.3-25.3,7.62
		c-1.41-6-3.52-11.55-6.33-16.61c12.19,0,19.33-0.7,21.44-2.08c2.11-1.39,3.16-3.92,3.16-7.62v-28.39h-78.01
		c-9.85,0-19.92,0.24-30.22,0.7v-12.47c9.36,0.46,19.21,0.69,29.51,0.69H1615.53z M1641.54,341.73c-0.47,4.62-0.7,11.55-0.7,20.77
		c0,8.77,0.23,16.16,0.7,22.15h-99.1v9.7c0,6.46,4.21,9.7,12.64,9.7h75.21c7.02,0,11.59-0.93,13.71-2.77
		c2.11-1.84,3.39-6.93,3.86-15.23c4.68,3.7,10.07,6.46,16.17,8.31c-4.21,10.62-7.51,16.85-9.83,18.69
		c-2.35,1.85-7.03,2.77-14.07,2.77h-95.59c-10.79,0-16.17-5.54-16.17-16.61v-39.46c0-5.99-0.47-11.99-1.4-18H1641.54z
		 M1564.23,479.49c-5.16,3.23-9.39,5.99-12.66,8.31c-5.16-9.23-11.49-18.45-18.98-27.7c3.74-2.29,7.26-5.3,10.54-8.99
		C1550.16,458.96,1557.2,468.42,1564.23,479.49z M1627.49,372.88V352.8h-85.04v20.08H1627.49z"/>
	<path d="M1723.78,364.58h26.71v114.21c0,7.38-1.65,12-4.92,13.86c-3.28,1.83-9.6,3.46-18.98,4.84c-0.94-5.07-2.81-10.15-5.62-15.22
		c7.49,0.46,12.31,0.46,14.4,0c2.11-0.46,3.16-3.47,3.16-9.01v-44.99h-29.51c0,10.61-0.36,19.96-1.06,28.03
		c-0.7,8.08-1.99,15.7-3.86,22.85c-1.88,7.14-4.69,14.64-8.43,22.49c-3.77-3.23-7.98-5.31-12.66-6.23
		c6.08-10.62,9.95-20.88,11.59-30.81c1.64-9.92,2.46-22.03,2.46-36.34c-3.28,0-7.26,0.24-11.94,0.69v-11.78
		c5.15,0.48,9.13,0.7,11.94,0.7v-30.47c0-6.91-0.24-14.53-0.7-22.84h14.75c3.75-8.77,6.33-17.08,7.73-24.92
		c5.15,1.84,10.07,3.46,14.77,4.84C1730.81,349.58,1727.52,356.27,1723.78,364.58z M1738.53,417.88v-42.92h-29.51v42.92H1738.53z
		 M1734.32,460.1c-3.28,1.85-6.81,3.93-10.54,6.24c-4.22-9.7-8.2-17.54-11.94-23.54c3.27-1.84,6.32-3.92,9.13-6.23
		C1725.65,444.43,1730.1,452.26,1734.32,460.1z M1733.62,405.42c-3.77,1.39-7.28,3.01-10.54,4.85c-1.88-5.54-5.16-12.92-9.85-22.15
		c2.81-1.39,6.09-3.23,9.85-5.54L1733.62,405.42z M1822.88,425.5v49.15c0,5.54,1.41,8.31,4.22,8.31h3.51c2.34,0,3.98-1.39,4.92-4.16
		c0.93-2.77,1.41-7.14,1.41-13.14c4.21,2.77,8.89,4.61,14.06,5.54c-1.88,8.77-3.77,14.76-5.62,17.99
		c-1.88,3.23-5.86,4.85-11.96,4.85h-11.24c-7.98,0-11.94-4.62-11.94-13.84v-68.54h-25.31c0,15.7-0.23,28.04-0.7,37.04
		c-0.47,9.01-2.46,17.78-5.97,26.31c-3.51,8.53-9.48,17.42-17.93,26.65c-2.81-4.16-6.56-7.17-11.24-8.99
		c9.85-8.78,16.05-17.31,18.63-25.62c2.57-8.31,3.98-15.58,4.22-21.8c0.23-6.23,0.35-13.26,0.35-21.12c0-7.84-0.24-15.68-0.7-23.54
		h52.01C1823.12,406.57,1822.88,414.89,1822.88,425.5z M1843.97,381.19c-5.62-0.45-11.49-0.69-17.57-0.69h-50.61
		c-5.16,0-10.07,0.24-14.75,0.69v-12.47c5.15,0.48,9.83,0.7,14.06,0.7h52.01c5.62,0,11.24-0.23,16.87-0.7V381.19z M1807.42,361.81
		c-5.62,2.32-10.09,4.38-13.36,6.23c-2.81-6.91-7.03-14.76-12.66-23.54c4.68-2.3,8.66-4.37,11.96-6.23
		C1799.45,347.5,1804.14,355.34,1807.42,361.81z"/>
</g>
<g>
	<g>
		<path class="st2" d="M856.21,215.07h21.22c-2.12,36.08-17.34,54.47-45.63,55.18c-36.79,0.7-54.49-24.41-53.06-75.35
			c-0.71-54.47,16.61-81.71,52-81.71c28.29,1.43,43.51,18.41,45.63,50.94h-20.16c-1.43-21.92-9.92-32.9-25.47-32.9
			c-21.22,0-31.14,22.65-29.71,67.92c-0.71,36.79,8.84,55.18,28.65,55.18C846.66,255.76,855.49,242.66,856.21,215.07z"/>
		<path class="st2" d="M1009.02,187.48c0.7,56.61-17.34,84.18-54.12,82.77c-36.79,0.7-54.83-26.88-54.12-82.77
			c0-48.82,18.04-73.57,54.12-74.28C990.27,113.91,1008.31,138.67,1009.02,187.48z M986.74,193.85c0.7-43.14-9.92-64.02-31.84-62.61
			c-22.65-1.41-33.26,19.47-31.84,62.61c-0.71,41.75,9.9,61.92,31.84,60.49C976.12,255.76,986.74,235.6,986.74,193.85z"/>
		<path class="st2" d="M1144.86,187.48c0.7,56.61-17.34,84.18-54.12,82.77c-36.79,0.7-54.83-26.88-54.12-82.77
			c0-48.82,18.04-73.57,54.12-74.28C1126.1,113.91,1144.14,138.67,1144.86,187.48z M1122.57,193.85
			c0.7-43.14-9.92-64.02-31.84-62.61c-22.65-1.41-33.26,19.47-31.84,62.61c-0.71,41.75,9.9,61.92,31.84,60.49
			C1111.96,255.76,1122.57,235.6,1122.57,193.85z"/>
		<path class="st2" d="M1280.69,187.48c0.7,56.61-17.34,84.18-54.12,82.77c-36.79,0.7-54.83-26.88-54.12-82.77
			c0-48.82,18.04-73.57,54.12-74.28C1261.94,113.91,1279.98,138.67,1280.69,187.48z M1258.41,193.85
			c0.7-43.14-9.92-64.02-31.84-62.61c-22.65-1.41-33.26,19.47-31.84,62.61c-0.71,41.75,9.9,61.92,31.84,60.49
			C1247.79,255.76,1258.41,235.6,1258.41,193.85z"/>
		<path class="st2" d="M1383.63,215.07h21.22c-2.12,36.08-17.34,54.47-45.63,55.18c-36.79,0.7-54.49-24.41-53.06-75.35
			c-0.71-54.47,16.62-81.71,52-81.71c28.29,1.43,43.51,18.41,45.63,50.94h-20.16c-1.43-21.92-9.92-32.9-25.47-32.9
			c-21.22,0-31.14,22.65-29.71,67.92c-0.71,36.79,8.84,55.18,28.65,55.18C1374.08,255.76,1382.92,242.66,1383.63,215.07z"/>
		<path class="st2" d="M1461.1,268.13h-25.47v-27.59h25.47V268.13z"/>
		<path class="st2" d="M1523.71,268.13h-22.29V64.38h22.29V268.13z"/>
		<path class="st2" d="M1583.13,91.97h-22.29V64.38h22.29V91.97z M1583.13,268.13h-22.29V117.44h22.29V268.13z"/>
		<path class="st2" d="M1641.5,117.44v15.92h1.06c10.61-13.43,22.98-20.16,37.14-20.16c24.76,0.71,37.49,13.45,38.2,38.2v116.73
			h-22.29V157.77c0-17.68-7.43-26.53-22.29-26.53c-7.79,0.71-14.86,3.55-21.22,8.49c-7.08,5.67-10.26,14.86-9.55,27.59v100.81
			h-21.22V117.44H1641.5z"/>
		<path class="st2" d="M1777.34,268.13h-21.22V64.38h21.22v123.1l52-70.04h25.47l-46.69,58.37l47.75,92.33h-24.41l-38.2-75.35
			l-15.92,21.22V268.13z"/>
	</g>
</g>
</svg>
