<?xml version="1.0" encoding="UTF-8"?>
<svg id="_图层_1" data-name="图层 1" xmlns="http://www.w3.org/2000/svg" viewBox="0 0 188.89 188.89">
  <defs>
    <style>
      .cls-1 {
        fill: #b3d13c;
      }

      .cls-2 {
        fill: #eb6d6e;
      }

      .cls-3 {
        fill: #6aaa90;
      }
    </style>
  </defs>
  <path class="cls-3" d="m166.06,123.25l20.07,10.04c2.57,1.29,2.57,4.96,0,6.25l-88.55,44.29c-1.97.98-4.28.98-6.25,0L2.77,139.53c-1.73-.87-2.42-2.97-1.55-4.7.34-.67.88-1.21,1.55-1.55l20.08-10.04,62.21,31.11c5.91,2.95,12.87,2.95,18.77,0l62.21-31.12h.01Z"/>
  <path class="cls-1" d="m91.32,5.07c1.97-.98,4.28-.98,6.25,0l88.55,44.28c1.73.88,2.42,2.99,1.54,4.72-.34.66-.88,1.2-1.54,1.54l-88.55,44.26c-1.97.98-4.28.98-6.25,0L2.77,55.6c-1.73-.86-2.43-2.96-1.57-4.69.34-.68.89-1.23,1.57-1.57L91.32,5.07Z"/>
  <path class="cls-2" d="m166.06,81.28l20.07,10.04c2.57,1.29,2.57,4.96,0,6.25l-88.55,44.28c-1.97.98-4.28.98-6.25,0L2.77,97.56c-1.73-.87-2.42-2.97-1.55-4.7.34-.67.88-1.21,1.55-1.55l20.08-10.04,62.21,31.11c5.91,2.95,12.87,2.95,18.77,0l62.21-31.11h.01Z"/>
</svg>